<?xml version="1.0" encoding="UTF-8"?> <svg xmlns="http://www.w3.org/2000/svg" viewBox="0 0 244.84 66.03"><defs><style>.cls-1{fill:#82492b;}.cls-2,.cls-3{fill:#5c1800;stroke:#5c1800;stroke-miterlimit:10;}.cls-2{stroke-width:0.31px;}.cls-3{stroke-width:0.2px;}</style></defs><g id="レイヤー_2" data-name="レイヤー 2"><g id="フレーム"><path class="cls-1" d="M54.18,21.24l-1-6.56h0l-1.71,6.53H49.61l-1.68-6.53h0l-1,6.56-1.86-.06,1.85-9.69,1.77.06,1.87,7.22h0l2-7.22,1.77-.06,1.85,9.69Z"></path><path class="cls-1" d="M60.47,21.21l-.11-.7h0a2.49,2.49,0,0,1-1.76.87,1.93,1.93,0,0,1-1.91-2.11c0-1.92,2-2.41,3.59-2.41v-.2c0-.68-.17-1.22-1-1.22a5,5,0,0,0-1.66.43l-.46-1.16A6.77,6.77,0,0,1,59.74,14a2.45,2.45,0,0,1,1.83.71,2.48,2.48,0,0,1,.53,1.77v4.69Zm-.22-3.29c-.83,0-1.75.27-1.75,1.24,0,.62.36.91.78.91a1.62,1.62,0,0,0,1-.5Z"></path><path class="cls-1" d="M67.11,15.91a1.54,1.54,0,0,0-.33,0A1.64,1.64,0,0,0,65.43,17v4.25h-1.9v-7h1.74l.13,1.12h0C65.52,15.11,66.1,14,67,14a1.58,1.58,0,0,1,.55.1Z"></path><path class="cls-1" d="M72.16,21.21l-1.94-3.7v3.7h-1.9V10.72h1.9v6.61l2-3.1h2l-2.18,3.1,2.31,3.88Z"></path><path class="cls-1" d="M80,17.93l-3.62.12c0,.82.34,1.95,1.58,1.95a3.51,3.51,0,0,0,1.54-.43l.47,1a5,5,0,0,1-2.59.8c-1.64,0-3-1.41-3-3.55,0-1.89,1.34-3.79,3.14-3.79s2.59,2.08,2.59,3.59Zm-2.43-2.61c-.75,0-1.14,1.15-1.22,1.71l2.1-.14C78.49,16.36,78.27,15.32,77.61,15.32Z"></path><path class="cls-1" d="M83.8,21.38A2.11,2.11,0,0,1,82.57,21a2.19,2.19,0,0,1-.78-1.92V15.64H80.58V14.35l1.21-.12L82,12.57l1.71-.48v2.14h1.49v1.41H83.69v3.45a1,1,0,0,0,.2.77.77.77,0,0,0,.56.2,1.71,1.71,0,0,0,.44,0l.49,1A3.52,3.52,0,0,1,83.8,21.38Z"></path><path class="cls-1" d="M93.13,21.24l-1.55-3.09a3.59,3.59,0,0,0-.37-.63.93.93,0,0,0-.75-.37h-.25v4.06H88.33V11.52h2.34c2,0,3.65.58,3.65,2.65a2.45,2.45,0,0,1-2,2.45v0c.45.11.69.47,1.2,1.36l1.79,3.15Zm-2.36-8.41h-.56v3h.55a1.46,1.46,0,0,0,1.65-1.54C92.41,13.33,91.75,12.83,90.77,12.83Z"></path><path class="cls-1" d="M101,17.93l-3.63.12c0,.82.35,1.95,1.59,1.95a3.45,3.45,0,0,0,1.53-.43l.48,1a5,5,0,0,1-2.59.8c-1.65,0-3-1.41-3-3.55,0-1.89,1.33-3.79,3.13-3.79s2.59,2.08,2.59,3.59Zm-2.44-2.61c-.75,0-1.14,1.15-1.22,1.71l2.1-.14C99.4,16.36,99.18,15.32,98.52,15.32Z"></path><path class="cls-1" d="M103.68,21.38a5.33,5.33,0,0,1-2.08-.51l.48-1.16a3.66,3.66,0,0,0,1.35.3c.58,0,.93-.31.93-.72,0-1-2.62-1.3-2.62-3.12A2.37,2.37,0,0,1,104.3,14a5.22,5.22,0,0,1,1.89.41l-.42,1.15a4.08,4.08,0,0,0-1.19-.22c-.54,0-1,.23-1,.73,0,1,2.65,1.29,2.65,3.15C106.24,20.84,104.78,21.38,103.68,21.38Z"></path><path class="cls-1" d="M112.45,17.93l-3.62.12c0,.82.34,1.95,1.58,1.95a3.56,3.56,0,0,0,1.54-.43l.47,1a5,5,0,0,1-2.59.8c-1.65,0-3-1.41-3-3.55,0-1.89,1.34-3.79,3.14-3.79s2.59,2.08,2.59,3.59ZM110,15.32c-.75,0-1.15,1.15-1.22,1.71l2.1-.14C110.9,16.36,110.68,15.32,110,15.32Z"></path><path class="cls-1" d="M116.91,21.21l-.11-.7h0a2.52,2.52,0,0,1-1.76.87,1.93,1.93,0,0,1-1.91-2.11c0-1.92,2-2.41,3.59-2.41v-.2c0-.68-.17-1.22-1-1.22a5.05,5.05,0,0,0-1.67.43l-.45-1.16a6.76,6.76,0,0,1,2.6-.67,2.47,2.47,0,0,1,1.84.71,2.48,2.48,0,0,1,.53,1.77v4.69Zm-.22-3.29c-.83,0-1.75.27-1.75,1.24,0,.62.36.91.78.91a1.62,1.62,0,0,0,1-.5Z"></path><path class="cls-1" d="M123.54,15.91a1.4,1.4,0,0,0-.32,0A1.64,1.64,0,0,0,121.87,17v4.25H120v-7h1.74l.13,1.12h0c.09-.24.67-1.31,1.57-1.31a1.49,1.49,0,0,1,.54.1Z"></path><path class="cls-1" d="M126.87,21.38c-1.38,0-2.69-1.22-2.69-3.42S125.54,14,127.36,14a4.43,4.43,0,0,1,1.58.33l-.45,1.18a2.69,2.69,0,0,0-.69-.1c-.91,0-1.69.9-1.69,2.43s.65,2.09,1.42,2.09a2.29,2.29,0,0,0,1.05-.34l.51,1A4.24,4.24,0,0,1,126.87,21.38Z"></path><path class="cls-1" d="M133.65,21.21V16.78c0-.61-.18-1-.67-1a2.41,2.41,0,0,0-1.21.56v4.9h-1.9V10.72h1.9V15a3.63,3.63,0,0,1,2-.91,1.75,1.75,0,0,1,1.15.46,2.73,2.73,0,0,1,.67,2.14v4.57Z"></path><path class="cls-1" d="M144.77,16.66v4a6.82,6.82,0,0,1-2.82.71,2.82,2.82,0,0,1-3.11-3,2.5,2.5,0,0,1,1.62-2.57h0a2.24,2.24,0,0,1-1.38-2.08,2.61,2.61,0,0,1,2.83-2.62,5.28,5.28,0,0,1,2.12.46l-.51,1.2a5.11,5.11,0,0,0-1.05-.14c-.51,0-1.47.14-1.47,1.24s.86,1.35,1.71,1.35h3.18v1.41Zm-1.83,0h-.69c-.66,0-1.46.32-1.46,1.74a1.32,1.32,0,0,0,1.36,1.51,3.94,3.94,0,0,0,.79-.08Z"></path><path class="cls-1" d="M152.71,21.38c-2.21,0-4-1.87-4-5,0-2.9,1.9-5,4.24-5a6.59,6.59,0,0,1,1.93.3l-.46,1.41a4.39,4.39,0,0,0-1.08-.14c-1.49,0-2.65,1.45-2.65,3.47s1.05,3.32,2.35,3.32a4,4,0,0,0,1.29-.24l.55,1.43A6.13,6.13,0,0,1,152.71,21.38Z"></path><path class="cls-1" d="M158.43,21.38c-2.12,0-3.18-1.67-3.18-3.69s1.19-3.65,3.2-3.65,3.18,1.68,3.18,3.71S160.43,21.38,158.43,21.38Zm0-5.91c-.76,0-1.27.78-1.27,2.22s.59,2.27,1.27,2.27,1.24-.76,1.24-2.21S159.11,15.47,158.45,15.47Z"></path><path class="cls-1" d="M166.51,21.21V16.78c0-.61-.19-1-.67-1a2.41,2.41,0,0,0-1.21.56v4.9h-1.9v-7h1.74l.09.75a3.8,3.8,0,0,1,2-.94,1.73,1.73,0,0,1,1.14.46,2.7,2.7,0,0,1,.68,2.14v4.57Z"></path><path class="cls-1" d="M171.36,21.38a5.35,5.35,0,0,1-2.09-.51l.49-1.16a3.59,3.59,0,0,0,1.35.3c.58,0,.92-.31.92-.72,0-1-2.62-1.3-2.62-3.12,0-1.47,1.48-2.13,2.56-2.13a5.24,5.24,0,0,1,1.9.41l-.43,1.15a4.08,4.08,0,0,0-1.19-.22c-.53,0-1,.23-1,.73,0,1,2.66,1.29,2.66,3.15C173.92,20.84,172.46,21.38,171.36,21.38Z"></path><path class="cls-1" d="M178.79,21.21l-.1-.77a3.69,3.69,0,0,1-2,.94,1.62,1.62,0,0,1-1.15-.46,2.63,2.63,0,0,1-.69-2.1V14.23h1.9v4.44c0,.62.21,1,.69,1a2.33,2.33,0,0,0,1.19-.55V14.23h1.9v7Z"></path><path class="cls-1" d="M182.38,21.44a1.61,1.61,0,0,1-.39-1.07V10.72h1.88v9.39a2.4,2.4,0,0,0,.18,1Z"></path><path class="cls-1" d="M187.88,21.38a2.11,2.11,0,0,1-1.23-.36,2.19,2.19,0,0,1-.78-1.92V15.64h-1.21V14.35l1.21-.12.19-1.66,1.71-.48v2.14h1.49v1.41h-1.49v3.45a1.08,1.08,0,0,0,.2.77.78.78,0,0,0,.57.2,1.81,1.81,0,0,0,.44,0l.48,1A3.52,3.52,0,0,1,187.88,21.38Z"></path><path class="cls-1" d="M191.25,12.83a1,1,0,0,1-1.08-1,1.08,1.08,0,0,1,2.16,0A1,1,0,0,1,191.25,12.83Zm-.94,8.38v-7h1.88v7Z"></path><path class="cls-1" d="M197.45,21.21V16.78c0-.61-.19-1-.68-1a2.41,2.41,0,0,0-1.2.56v4.9h-1.9v-7h1.74l.09.75a3.76,3.76,0,0,1,2-.94,1.75,1.75,0,0,1,1.14.46,2.74,2.74,0,0,1,.68,2.14v4.57Z"></path><path class="cls-1" d="M206.86,15.65H206a1.55,1.55,0,0,1,.2.83c0,1.58-1.29,2.41-2.79,2.41a1.66,1.66,0,0,1-.39,0s-.82.29-.82.76.56.47,1.22.49c1.67,0,3.42.38,3.42,2.35,0,1.68-1.55,2.55-3.31,2.55s-3.15-.65-3.15-2.14A2.47,2.47,0,0,1,201.45,21c-.52-.21-1-.49-1-1.18s.72-1.14,1.29-1.41a2.19,2.19,0,0,1-1.1-2c0-1.49,1.19-2.4,2.78-2.4a3.37,3.37,0,0,1,1.64.44l1.9-.44Zm-3.78,5.66a1.81,1.81,0,0,0-.81,1.34,1.14,1.14,0,0,0,1.27,1.08,1.3,1.3,0,0,0,1.39-1.27C204.93,21.38,203.84,21.35,203.08,21.31Zm.33-6.14c-.47,0-1,.43-1,1.25s.49,1.37,1,1.37,1-.43,1-1.3S203.91,15.17,203.41,15.17Z"></path><path class="cls-2" d="M1.37,44.18.19,41.8a14.24,14.24,0,0,0,2.11-4,36.42,36.42,0,0,0,1.34-5.27A106.29,106.29,0,0,1,7,18C9.19,11,13,4.57,19.22.18a7.76,7.76,0,0,1,2.31,2.68l-1.74.87c-.08-.1-.18-.24-.29-.41s-.2-.3-.32-.44A17.54,17.54,0,0,0,15.05,6.4c-2.57,2.95-4.63,6.92-6.31,12.15A105.31,105.31,0,0,0,5.49,32.84a38.87,38.87,0,0,1-1.41,5.54A22.93,22.93,0,0,1,1.37,44.18Z"></path><path class="cls-2" d="M4.18,46.58a4.11,4.11,0,0,1-.8.53L2.27,45.34s0-.11,0-.11A9.31,9.31,0,0,0,4,42.66c.14-.31.27-.59.4-.84a29.47,29.47,0,0,0,2.45-7.56c.28-1.38.55-2.79.8-4.15.48-2.58,1-5.26,1.68-7.86,1.15-4.31,2.89-9.79,6.3-13.94a14.32,14.32,0,0,1,5.12-3.94A2.87,2.87,0,0,1,22,4a5.2,5.2,0,0,1,1.26,1.81L21.76,6.88a4.24,4.24,0,0,1-.31-.4l-.17-.24A10.33,10.33,0,0,0,17.11,9.5c-3.18,3.87-4.86,9.1-6,13.23-.68,2.54-1.17,5.18-1.64,7.72-.26,1.38-.53,2.8-.82,4.2C8.2,37,6.59,44,4.18,46.58Z"></path><path class="cls-2" d="M5.26,49.94a9,9,0,0,1-1.18-1.61l.62-.39a6,6,0,0,0,2.08-2.89,41,41,0,0,0,2.4-6.35c2.71-9.21,2.81-19.11,8.27-27.18A15.68,15.68,0,0,1,20.11,8.6c1-.86,2.81-2,4-.93.05,0,.7.78.65.83s-1.2,1.33-1.2,1.33l-.43-.5a3.12,3.12,0,0,0-.43.05c-1.26.2-2.44,1.6-3.68,3.26-5,6.65-5.61,17.43-7.71,25.35a43.39,43.39,0,0,1-2.88,7.87C6.87,49.2,5.56,49.85,5.26,49.94Z"></path><path class="cls-2" d="M7.34,52.51c-.94.28-1.64-1-2-1.75.56-.26.86-.34,1.41-.62.14-.07.87,0,1,0a15.35,15.35,0,0,0,2.75-4.27,68.16,68.16,0,0,0,3.93-12.29c1.45-7,1.67-14.26,6-20.06a9.57,9.57,0,0,1,2.12-2.23c.77-.49,2.07-1.21,3.31-.39l-.21,1.78a2,2,0,0,0-2.3.38c-3.69,3.41-4.76,8.39-5.83,14.1-1,5.25-1.72,10.62-3.66,15.63-1,2.61-1.95,5.33-3.74,7.53A6,6,0,0,1,7.34,52.51Z"></path><path class="cls-2" d="M9.3,55.39a.84.84,0,0,1-.74,0,12.86,12.86,0,0,1-1.31-1.65l1.69-.83c.6,1.23,2.62-2,2.88-2.41.39-.61.75-1.23,1.09-1.87,3.24-6,4.72-12.55,5.91-19.22.76-4.24,1.61-8.56,3.66-12.4a9.65,9.65,0,0,1,2.15-2.88c.69-.55,1.8-1.15,2.48-.62l.3,1.61c-.61-.24-1.74.39-2.39,1.24-3.06,4-3.85,9.37-4.63,14.24a63.94,63.94,0,0,1-4.32,15.83c-.46,1-1,2.08-1.51,3.09-.39.73-.81,1.46-1.26,2.15A8.69,8.69,0,0,1,9.3,55.39Z"></path><path class="cls-2" d="M10.74,58.82c-.61-.15-1.47-2-1.47-2,.16-.09,1.61-1,1.61-1a3.54,3.54,0,0,1,.19.33l.1.2c1.34-.6,2.49-2.41,3.19-3.48,4.43-6.7,6.12-14.61,7.62-22.37.43-2.24.89-4.48,1.47-6.69a27.56,27.56,0,0,1,1.69-4.82A8.13,8.13,0,0,1,26.48,17c.16-.18,1.56-1.52,1.8-1l1,1.71a3.08,3.08,0,0,0-.9.49c-2,1.63-2.65,4.4-3.25,6.79-.76,3-1.34,6.12-2,9.2-.34,1.68-.7,3.37-1.11,5A46.92,46.92,0,0,1,15.93,54a14.9,14.9,0,0,1-3.83,4.12,4.42,4.42,0,0,1-1.24.75A.26.26,0,0,1,10.74,58.82Z"></path><path class="cls-2" d="M12.53,62A8.17,8.17,0,0,1,11.05,60l1.58-1.08c.09.15.18.32.26.48l0,.09A15.44,15.44,0,0,0,17.07,55,52.36,52.36,0,0,0,23,41.51a98.28,98.28,0,0,0,2.36-10.6l.06-.33c.43-2.46.82-4.55,1.48-7A19.16,19.16,0,0,1,28,20.76c.42-.93,1-2,1.88-2.3,0,0,.84,1.21,1.16,1.72a6.16,6.16,0,0,0-1.24,1.66c-1.62,3.51-1.9,7.16-2.73,11.07C26.39,36,25.71,39,24.81,42.05a53.64,53.64,0,0,1-6.18,14c-.33.51-.68,1-1,1.5a13.07,13.07,0,0,1-3.53,3.54C13.9,61.21,12.67,62.14,12.53,62Z"></path><path class="cls-2" d="M15.12,65.84a8,8,0,0,1-2.19-3l1.92-1c.1.18.25.42.39.65.52-.5,1.39-1.43,2.74-3l.05-.06a37.89,37.89,0,0,0,6.28-11.06,79.49,79.49,0,0,0,4.13-15c.33-2,.64-4,1-5.95A15.53,15.53,0,0,1,31.72,21l1.34,2.23c-1.31,2.27-2.37,7.76-2.82,10.47A80.31,80.31,0,0,1,26.06,49C24.26,53.72,20.41,62,15.12,65.84Z"></path><path class="cls-3" d="M50.28,54.2a16.44,16.44,0,0,1-5.7-1.13l1-3.21a12.62,12.62,0,0,0,3.92.75c1.82,0,3.24-1,3.24-2.5,0-3.63-7.8-5.15-7.8-10.65,0-4.41,3.74-6.06,6.7-6.06a15.31,15.31,0,0,1,5.13,1l-1,3a12.94,12.94,0,0,0-3.28-.55c-1.78,0-3.17.78-3.17,2.5,0,3.43,7.88,5,7.88,10.72C57.23,52.45,53.56,54.2,50.28,54.2Z"></path><path class="cls-3" d="M60.29,53.81v-22H71.87v3.37H64.46V41h6.45v3H64.46v6.41h7.59v3.43Z"></path><path class="cls-3" d="M75.4,53.81v-22H87v3.37H79.56V41H86v3H79.56v6.41h7.59v3.43Z"></path><path class="cls-3" d="M94.14,53.81H90.5v-22h5.06c8.45,0,11.58,5.5,11.58,10.59C107.14,49.18,103.55,53.81,94.14,53.81Zm1.78-18.65H94.85V50.35h.57c3.56,0,7.31-1.59,7.31-7.84C102.73,38.59,100.44,35.16,95.92,35.16Z"></path><path class="cls-3" d="M121.72,45.36a11.38,11.38,0,0,1-1.93-.19v8.64h-4.35v-22h5.21c5.2,0,8.62,1.91,8.62,6.73C129.27,43,125.46,45.36,121.72,45.36Zm-.64-10.59h-1.29v7.29a6.75,6.75,0,0,0,1.75.25A3.4,3.4,0,0,0,125,38.59C125,36.55,124.1,34.77,121.08,34.77Z"></path><path class="cls-3" d="M131.94,53.81v-22h4.34V50.38h7.41v3.43Z"></path><path class="cls-3" d="M158.84,53.88l-1.57-5.44h-6.59l-1.54,5.44-4.52-.16L152,31.79h4.14l7.41,21.93ZM154,36.61H154l-2.49,8.94h5.1Z"></path><path class="cls-3" d="M177.36,53.91l-8.19-15.29,0,.07.14,15.12h-3.88V32l3.92-.26,8.2,15.22,0,0-.14-15.16h3.88V53.65Z"></path><path class="cls-3" d="M196.32,53.91l-8.2-15.29,0,.07.14,15.12h-3.88V32l3.92-.26,8.19,15.22,0,0-.14-15.16h3.88V53.65Z"></path><path class="cls-3" d="M203.27,53.81v-22h4.34v22Z"></path><path class="cls-3" d="M222.9,53.91l-8.2-15.29,0,.07.14,15.12h-3.88V32l3.92-.26L223,46.91l0,0-.14-15.16h3.88V53.65Z"></path><path class="cls-3" d="M238.36,54.2c-5.55,0-9.4-4.24-9.4-11.4,0-6.61,4.17-11.4,10-11.4a16.08,16.08,0,0,1,4.81.68l-1.07,3.2a10.91,10.91,0,0,0-2.85-.32c-3.92,0-6.38,3.31-6.38,7.91,0,4.92,2.31,7.61,5.74,7.61a3.59,3.59,0,0,0,1.31-.23V42.77h4.24v9.88A13.5,13.5,0,0,1,238.36,54.2Z"></path></g></g></svg> 